<svg width="195" height="48" viewBox="0 0 195 48" fill="none" xmlns="http://www.w3.org/2000/svg">
<path d="M21.9183 24.0338C21.2774 23.5944 20.5691 23.2565 19.7596 23.0199C19.8608 23.0199 19.9283 22.9523 20.0295 22.9185C20.9401 22.5805 21.6484 22.0397 22.1544 21.3299C22.6603 20.6201 22.9302 19.7752 22.9302 18.7274C22.9302 17.6796 22.6603 16.6657 22.1881 15.9221C21.6822 15.1785 20.9739 14.6039 20.0632 14.1984C19.1525 13.8266 18.0732 13.6238 16.8252 13.6238H12.238V34.3763H17.1288C18.4779 34.3763 19.6584 34.1397 20.704 33.7341C21.7496 33.2947 22.5929 32.6187 23.1663 31.7062C23.7734 30.7936 24.0769 29.6444 24.0769 28.2925C24.0769 26.9405 23.8746 26.5011 23.5035 25.7914C23.0988 25.0816 22.5929 24.4732 21.952 24.0338H21.9183ZM16.8252 15.4489C18.1069 15.4489 19.1188 15.7531 19.8608 16.3615C20.6028 16.9699 20.9739 17.781 20.9739 18.8626C20.9739 19.9442 20.8052 20.2484 20.4342 20.7215C20.0632 21.1947 19.5572 21.5665 18.9501 21.8031C18.6803 21.9045 18.3767 21.9721 18.0394 22.0397C17.3986 21.2961 16.6565 20.9243 15.9145 20.9243C15.1725 20.9243 14.734 21.1609 14.1606 21.6341V15.3813H16.8252V15.4489ZM17.5335 23.1551C16.5216 24.3718 15.3411 24.3718 14.2955 23.1551C15.3074 21.9383 16.4879 21.9383 17.5335 23.1551ZM21.4798 30.6584C21.0751 31.3006 20.5017 31.8076 19.7596 32.1118C19.0176 32.4497 18.1069 32.6187 17.1288 32.6187H14.1943V24.6422C14.734 25.1154 15.3411 25.352 15.9482 25.352C16.5554 25.352 17.5672 24.8788 18.2755 24C18.5454 24.0338 18.8152 24.1014 19.0513 24.169C19.6247 24.3718 20.1644 24.6422 20.6366 25.014C21.1088 25.3858 21.4798 25.8252 21.7159 26.3659C21.9857 26.9067 22.1207 27.5151 22.1207 28.1911C22.1207 28.8671 21.9183 29.9824 21.5135 30.6246L21.4798 30.6584Z" fill="#32575A"/>
<path d="M36.845 13.6238H36.2716H36.1029H35.2597H35.0911V13.7928V34.2073V34.3763H35.2597H36.1029H36.2716H36.6763H36.845H46.1879H46.3566V34.2073V32.6863V32.5173H46.1879H37.0136V23.9324H45.6145H45.7832V23.7634V22.2425V22.0735H45.6145H37.0136V15.4827H46.1879H46.3566V15.3137V13.7928V13.6238H46.1879H36.845Z" fill="#32575A"/>
<path d="M57.5395 13.6238H57.3708V13.7928V15.3137V15.4827H57.5395H62.7V34.2073V34.3763H62.8687H64.4877H64.6563V34.2073V15.4827H69.8169H69.9855V15.3137V13.7928V13.6238H69.8169H57.5395Z" fill="#32575A"/>
<path d="M107.106 13.4548H106.904L106.836 13.6576L101.305 29.7796L95.1321 12.238L89.0609 29.7796L83.4281 13.6576L83.3607 13.4548H83.1583H81.4044H80.9996L81.1346 13.8266L88.6899 35.0185L88.926 35.762L89.1958 35.0185L95.1321 18.2204L101.102 35.0185L101.338 35.762L101.608 35.0185L109.13 13.8266L109.265 13.4548H108.894H107.106Z" fill="#32575A"/>
<path d="M122.033 13.6238H121.459H121.291H120.447H120.279V13.7928V34.2073V34.3763H120.447H121.291H121.459H121.864H122.033H131.376H131.544V34.2073V32.6863V32.5173H131.376H122.201V23.9324H130.802H130.971V23.7634V22.2425V22.0735H130.802H122.201V15.4827H131.376H131.544V15.3137V13.7928V13.6238H131.376H122.033Z" fill="#32575A"/>
<path d="M144.313 13.6238H143.739H143.57H142.727H142.559V13.7928V34.2073V34.3763H142.727H143.57H143.739H144.144H144.313H153.655H153.824V34.2073V32.6863V32.5173H153.655H144.481V23.9324H153.082H153.251V23.7634V22.2425V22.0735H153.082H144.481V15.4827H153.655H153.824V15.3137V13.7928V13.6238H153.655H144.313Z" fill="#32575A"/>
<path d="M182.108 13.6068H180.489H180.32V13.7758V30.4049L165.142 12.8971L164.838 12.5591V12.9985V34.1903V34.3593H165.007H166.626H166.795V34.1903V17.6289L181.973 35.1029L182.276 35.4409V34.9677V13.7758V13.6068H182.108Z" fill="#32575A"/>
</svg>
