<svg width="24" height="24" viewBox="0 0 24 24" fill="none" xmlns="http://www.w3.org/2000/svg">
<path d="M11.25 16.627V5.25C11.25 5.03717 11.3218 4.859 11.4655 4.7155C11.609 4.57183 11.7872 4.5 12 4.5C12.2128 4.5 12.391 4.57183 12.5345 4.7155C12.6782 4.859 12.75 5.03717 12.75 5.25V16.627L17.9192 11.4577C18.0679 11.3091 18.2419 11.2357 18.4412 11.2375C18.6406 11.2395 18.8178 11.318 18.973 11.473C19.1178 11.6282 19.1928 11.8038 19.198 12C19.2032 12.1962 19.1282 12.3718 18.973 12.527L12.6327 18.8673C12.5391 18.9609 12.4403 19.0269 12.3365 19.0652C12.2327 19.1038 12.1205 19.123 12 19.123C11.8795 19.123 11.7673 19.1038 11.6635 19.0652C11.5597 19.0269 11.4609 18.9609 11.3672 18.8673L5.02699 12.527C4.88849 12.3885 4.81766 12.217 4.81449 12.0125C4.81133 11.808 4.88216 11.6282 5.02699 11.473C5.18216 11.318 5.36033 11.2405 5.56149 11.2405C5.76283 11.2405 5.94108 11.318 6.09624 11.473L11.25 16.627Z" fill="#5F6368"/>
</svg>
