<svg width="56" height="56" viewBox="0 0 56 56" fill="none" xmlns="http://www.w3.org/2000/svg">
<path d="M0 12C0 5.37258 5.37258 0 12 0H44C50.6274 0 56 5.37258 56 12V44C56 50.6274 50.6274 56 44 56H12C5.37258 56 0 50.6274 0 44V12Z" fill="#EDF2F7"/>
<path d="M14 28.5H28C28.0657 28.5 28.1307 28.4871 28.1914 28.462C28.2521 28.4369 28.3072 28.4001 28.3536 28.3536C28.4001 28.3072 28.4369 28.2521 28.462 28.1914C28.4871 28.1307 28.5 28.0657 28.5 28C28.5018 26.5693 28.0918 25.1684 27.319 23.9643C26.5462 22.7603 25.4433 21.8041 24.1419 21.2099C24.7823 20.5851 25.222 19.7836 25.4047 18.9077C25.5874 18.0318 25.5049 17.1214 25.1676 16.2926C24.8303 15.4639 24.2536 14.7545 23.5112 14.2551C22.7688 13.7558 21.8944 13.489 20.9996 13.4891C20.1049 13.4891 19.2305 13.7559 18.4881 14.2553C17.7457 14.7547 17.1691 15.4641 16.8318 16.2929C16.4946 17.1216 16.4121 18.0321 16.5949 18.908C16.7776 19.7838 17.2173 20.5853 17.8579 21.2101C16.5565 21.8044 15.4537 22.7605 14.6809 23.9645C13.9082 25.1685 13.4983 26.5694 13.5 28C13.5 28.0657 13.5129 28.1307 13.538 28.1914C13.5631 28.2521 13.5999 28.3072 13.6464 28.3536C13.6928 28.4001 13.7479 28.4369 13.8086 28.462C13.8693 28.4871 13.9343 28.5 14 28.5ZM17.5 18C17.4993 17.2215 17.7582 16.465 18.2358 15.8502C18.7134 15.2353 19.3823 14.7973 20.1368 14.6053C20.8913 14.4134 21.6882 14.4785 22.4015 14.7903C23.1148 15.1022 23.7038 15.643 24.0752 16.3272C24.4467 17.0113 24.5794 17.7998 24.4524 18.5679C24.3254 19.336 23.9459 20.0398 23.3739 20.568C22.802 21.0961 22.0703 21.4185 21.2945 21.4841C20.5188 21.5497 19.7433 21.3548 19.0908 20.9302C18.6031 20.6123 18.2023 20.178 17.9246 19.6664C17.6469 19.1548 17.5009 18.5821 17.5 18ZM18.7874 21.9022C19.459 22.2937 20.2225 22.5 20.9999 22.5C21.7773 22.5 22.5407 22.2937 23.2123 21.9022C24.3891 22.3224 25.4187 23.0748 26.1763 24.0684C26.934 25.062 27.3872 26.254 27.481 27.5H14.519C14.6128 26.2541 15.066 25.0621 15.8236 24.0685C16.5812 23.0749 17.6107 22.3224 18.7874 21.9022Z" fill="#32575A"/>
<path d="M42 14.5H30C29.9343 14.5 29.8693 14.5129 29.8086 14.538C29.7479 14.5631 29.6928 14.5999 29.6464 14.6464C29.5999 14.6928 29.5631 14.7479 29.538 14.8086C29.5129 14.8693 29.5 14.9343 29.5 15V23C29.5 23.0657 29.5129 23.1307 29.538 23.1914C29.5631 23.2521 29.5999 23.3072 29.6464 23.3536C29.6928 23.4001 29.7479 23.4369 29.8086 23.462C29.8693 23.4871 29.9343 23.5 30 23.5H31.5V25C31.5 25.0852 31.5218 25.169 31.5633 25.2435C31.6048 25.3179 31.6647 25.3805 31.7372 25.4253C31.8097 25.4701 31.8924 25.4956 31.9775 25.4995C32.0627 25.5033 32.1474 25.4854 32.2236 25.4473L36.1182 23.5H42C42.0657 23.5 42.1307 23.4871 42.1914 23.462C42.2521 23.4369 42.3072 23.4001 42.3536 23.3536C42.4001 23.3072 42.4369 23.2521 42.462 23.1914C42.4871 23.1307 42.5 23.0657 42.5 23V15C42.5 14.9343 42.4871 14.8693 42.462 14.8086C42.4369 14.7479 42.4001 14.6928 42.3536 14.6464C42.3072 14.5999 42.2521 14.5631 42.1914 14.538C42.1307 14.5129 42.0657 14.5 42 14.5ZM41.5 22.5H36C35.9224 22.5 35.8458 22.518 35.7764 22.5527L32.5 24.1909V23C32.5 22.9343 32.4871 22.8693 32.462 22.8086C32.4369 22.7479 32.4001 22.6928 32.3536 22.6464C32.3072 22.5999 32.2521 22.5631 32.1914 22.538C32.1307 22.5129 32.0657 22.5 32 22.5H30.5V15.5H41.5V22.5Z" fill="#32575A"/>
<path d="M33 18.5H39C39.1326 18.5 39.2598 18.4473 39.3536 18.3536C39.4473 18.2598 39.5 18.1326 39.5 18C39.5 17.8674 39.4473 17.7402 39.3536 17.6464C39.2598 17.5527 39.1326 17.5 39 17.5H33C32.8674 17.5 32.7402 17.5527 32.6464 17.6464C32.5527 17.7402 32.5 17.8674 32.5 18C32.5 18.1326 32.5527 18.2598 32.6464 18.3536C32.7402 18.4473 32.8674 18.5 33 18.5Z" fill="#32575A"/>
<path d="M33 20.5H39C39.1326 20.5 39.2598 20.4473 39.3536 20.3536C39.4473 20.2598 39.5 20.1326 39.5 20C39.5 19.8674 39.4473 19.7402 39.3536 19.6464C39.2598 19.5527 39.1326 19.5 39 19.5H33C32.8674 19.5 32.7402 19.5527 32.6464 19.6464C32.5527 19.7402 32.5 19.8674 32.5 20C32.5 20.1326 32.5527 20.2598 32.6464 20.3536C32.7402 20.4473 32.8674 20.5 33 20.5Z" fill="#32575A"/>
<path d="M38.1419 35.2099C38.7823 34.5851 39.222 33.7836 39.4047 32.9077C39.5874 32.0318 39.5048 31.1214 39.1675 30.2927C38.8302 29.4639 38.2536 28.7546 37.5112 28.2552C36.7688 27.7558 35.8943 27.4891 34.9996 27.4892C34.1049 27.4892 33.2305 27.7559 32.4881 28.2554C31.7457 28.7548 31.1691 29.4642 30.8319 30.2929C30.4946 31.1216 30.4121 32.0321 30.5949 32.908C30.7776 33.7838 31.2173 34.5853 31.8578 35.2101C30.5565 35.8044 29.4536 36.7605 28.6809 37.9645C27.9082 39.1685 27.4983 40.5694 27.5 42C27.5 42.0657 27.5129 42.1307 27.538 42.1914C27.5631 42.2521 27.5999 42.3072 27.6464 42.3536C27.6928 42.4001 27.7479 42.4369 27.8086 42.462C27.8693 42.4871 27.9343 42.5 28 42.5H33C33.1326 42.5 33.2598 42.4473 33.3536 42.3535C33.4473 42.2598 33.5 42.1326 33.5 42C33.5 41.8674 33.4473 41.7402 33.3536 41.6464C33.2598 41.5527 33.1326 41.5 33 41.5H28.519C28.6128 40.2541 29.066 39.0621 29.8236 38.0685C30.5812 37.0749 31.6107 36.3224 32.7874 35.9022C33.459 36.2937 34.2225 36.5 34.9998 36.5C35.7772 36.5 36.5407 36.2937 37.2123 35.9021C38.389 36.3224 39.4186 37.0748 40.1763 38.0684C40.934 39.062 41.3872 40.254 41.481 41.5H37C36.8674 41.5 36.7402 41.5527 36.6465 41.6464C36.5527 41.7402 36.5 41.8674 36.5 42C36.5 42.1326 36.5527 42.2598 36.6465 42.3535C36.7402 42.4473 36.8674 42.5 37 42.5H42C42.0657 42.5 42.1307 42.4871 42.1914 42.462C42.2521 42.4369 42.3072 42.4001 42.3536 42.3536C42.4001 42.3072 42.4369 42.2521 42.462 42.1914C42.4871 42.1307 42.5 42.0657 42.5 42C42.5018 40.5693 42.0918 39.1683 41.319 37.9643C40.5462 36.7603 39.4433 35.8041 38.1419 35.2099ZM33.0909 34.9302C32.4584 34.5186 31.976 33.9136 31.7154 33.2055C31.4548 32.4973 31.4301 31.7239 31.6448 31.0006C31.8596 30.2772 32.3024 29.6426 32.9072 29.1914C33.512 28.7402 34.2464 28.4966 35.001 28.4968C35.7556 28.497 36.4898 28.741 37.0944 29.1925C37.699 29.644 38.1414 30.2789 38.3558 31.0023C38.5702 31.7258 38.5451 32.4992 38.2841 33.2072C38.0232 33.9152 37.5404 34.5199 36.9077 34.9312C36.3379 35.2957 35.6756 35.4893 34.9991 35.4891C34.3227 35.489 33.6605 35.295 33.0909 34.9302Z" fill="#32575A"/>
<path d="M26 30.5H14C13.9343 30.5 13.8693 30.5129 13.8086 30.538C13.7479 30.5631 13.6928 30.5999 13.6464 30.6464C13.5999 30.6928 13.5631 30.7479 13.538 30.8086C13.5129 30.8693 13.5 30.9343 13.5 31V39C13.5 39.0657 13.5129 39.1307 13.538 39.1914C13.5631 39.2521 13.5999 39.3072 13.6464 39.3536C13.6928 39.4001 13.7479 39.4369 13.8086 39.462C13.8693 39.4871 13.9343 39.5 14 39.5H19.8818L23.7764 41.4473C23.8526 41.4853 23.9373 41.5033 24.0224 41.4994C24.1076 41.4956 24.1903 41.47 24.2628 41.4252C24.3353 41.3804 24.3951 41.3179 24.4366 41.2434C24.4781 41.169 24.5 41.0852 24.5 41V39.5H26C26.0657 39.5 26.1307 39.4871 26.1914 39.462C26.2521 39.4369 26.3072 39.4001 26.3536 39.3536C26.4001 39.3072 26.4369 39.2521 26.462 39.1914C26.4871 39.1307 26.5 39.0657 26.5 39V31C26.5 30.9343 26.4871 30.8693 26.462 30.8086C26.4369 30.7479 26.4001 30.6928 26.3536 30.6464C26.3072 30.5999 26.2521 30.5631 26.1914 30.538C26.1307 30.5129 26.0657 30.5 26 30.5ZM25.5 38.5H24C23.9343 38.5 23.8693 38.5129 23.8086 38.538C23.7479 38.5631 23.6928 38.5999 23.6464 38.6464C23.5999 38.6928 23.5631 38.7479 23.538 38.8086C23.5129 38.8693 23.5 38.9343 23.5 39V40.1909L20.2236 38.5527C20.1542 38.518 20.0776 38.5 20 38.5H14.5V31.5H25.5V38.5Z" fill="#32575A"/>
<path d="M17 34.5H23C23.1326 34.5 23.2598 34.4473 23.3536 34.3536C23.4473 34.2598 23.5 34.1326 23.5 34C23.5 33.8674 23.4473 33.7402 23.3536 33.6464C23.2598 33.5527 23.1326 33.5 23 33.5H17C16.8674 33.5 16.7402 33.5527 16.6464 33.6464C16.5527 33.7402 16.5 33.8674 16.5 34C16.5 34.1326 16.5527 34.2598 16.6464 34.3536C16.7402 34.4473 16.8674 34.5 17 34.5Z" fill="#32575A"/>
<path d="M17 36.5H23C23.1326 36.5 23.2598 36.4473 23.3536 36.3536C23.4473 36.2598 23.5 36.1326 23.5 36C23.5 35.8674 23.4473 35.7402 23.3536 35.6464C23.2598 35.5527 23.1326 35.5 23 35.5H17C16.8674 35.5 16.7402 35.5527 16.6464 35.6464C16.5527 35.7402 16.5 35.8674 16.5 36C16.5 36.1326 16.5527 36.2598 16.6464 36.3536C16.7402 36.4473 16.8674 36.5 17 36.5Z" fill="#32575A"/>
<path d="M35 42.5C35.2761 42.5 35.5 42.2761 35.5 42C35.5 41.7239 35.2761 41.5 35 41.5C34.7239 41.5 34.5 41.7239 34.5 42C34.5 42.2761 34.7239 42.5 35 42.5Z" fill="#32575A"/>
</svg>
