<svg width="56" height="56" viewBox="0 0 56 56" fill="none" xmlns="http://www.w3.org/2000/svg">
<path d="M0 12C0 5.37258 5.37258 0 12 0H44C50.6274 0 56 5.37258 56 12V44C56 50.6274 50.6274 56 44 56H12C5.37258 56 0 50.6274 0 44V12Z" fill="#EDF2F7"/>
<path d="M35.4111 42.68H30.0482V41.0126C30.0482 40.8291 29.717 35.8502 33.2691 33.0722C33.7157 32.7347 34.1252 32.3455 34.4899 31.9117L38.572 26.9094C38.8149 26.6102 39.1502 26.4118 39.5184 26.3491V18.6689C39.5179 18.2402 39.6737 17.8278 39.9533 17.5173C40.2329 17.2068 40.6149 17.0221 41.02 17.0015C41.228 16.992 41.4356 17.0274 41.6303 17.1053C41.825 17.1833 42.0027 17.3023 42.1525 17.455C42.3158 17.6226 42.4455 17.8233 42.5339 18.045C42.6222 18.2667 42.6674 18.505 42.6667 18.7456V28.7502C42.6673 29.2303 42.7021 29.7097 42.7708 30.1842C42.9096 31.1847 42.9601 33.1123 41.7077 34.5863C39.9727 36.6372 38.5026 38.2146 36.9474 39.882L36.2628 40.609L35.4111 41.1926V42.68ZM30.6791 42.013H34.7802V40.8325L35.878 40.0721L36.49 39.4052C38.0389 37.7377 39.5026 36.1703 41.2219 34.1261C42.3039 32.8555 42.2535 31.1647 42.1304 30.2676C42.0637 29.7638 42.0321 29.2556 42.0358 28.7469V18.7423C42.0371 18.5928 42.0098 18.4445 41.9556 18.3064C41.9014 18.1683 41.8214 18.0432 41.7203 17.9386C41.6325 17.8483 41.5281 17.7778 41.4137 17.7314C41.2993 17.6849 41.1772 17.6635 41.0547 17.6685C40.8098 17.678 40.5779 17.7876 40.4078 17.9742C40.2378 18.1608 40.1429 18.4098 40.143 18.6689V26.3925C40.3761 26.4578 40.592 26.5787 40.7739 26.746C40.9312 26.8874 41.0601 27.0604 41.1533 27.2551C41.2465 27.4498 41.302 27.6622 41.3165 27.8798C41.3165 27.9232 41.3165 27.9632 41.3165 28.0066C41.3163 28.4071 41.1797 28.7942 40.9317 29.0971L36.7613 34.2428C36.7057 34.3065 36.6288 34.3448 36.5469 34.3496C36.4651 34.3544 36.3847 34.3253 36.3227 34.2685C36.2608 34.2117 36.2222 34.1316 36.2152 34.0453C36.2081 33.959 36.2331 33.8731 36.2849 33.8059L40.49 28.6735C40.6432 28.4896 40.7254 28.2516 40.7203 28.0066V27.9399C40.7004 27.6829 40.5874 27.4439 40.4049 27.2729C40.2487 27.114 40.0439 27.0194 39.8276 27.0061H39.7645C39.6311 27.0059 39.4992 27.0355 39.3774 27.093C39.2557 27.1505 39.1467 27.2345 39.0578 27.3396L34.9757 32.3419C34.5805 32.8124 34.1372 33.2352 33.654 33.6025C30.3858 36.1637 30.6791 40.9392 30.6791 40.9859V42.013Z" fill="#32575A"/>
<path d="M26.8467 42.6667H21.18V41.18L20.2367 40.55L19.57 39.8833C17.9267 38.2167 16.3733 36.64 14.53 34.5867C13.1967 33.1133 13.2567 31.1967 13.4067 30.1867C13.4765 29.7121 13.5122 29.233 13.5133 28.7533V18.7533C13.5132 18.511 13.5621 18.2712 13.6572 18.0483C13.7524 17.8255 13.8916 17.6242 14.0667 17.4567C14.2242 17.3036 14.4113 17.1842 14.6164 17.1057C14.8216 17.0272 15.0405 16.9912 15.26 17C15.6734 17.0173 16.065 17.1899 16.3567 17.4833C16.5123 17.6385 16.6358 17.823 16.7199 18.0261C16.804 18.2291 16.8471 18.4469 16.8467 18.6667V26.36C17.2357 26.4226 17.59 26.621 17.8467 26.92L22.16 31.92C22.5454 32.3535 22.9781 32.7426 23.45 33.08C27.2033 35.8567 26.8667 40.8333 26.85 41.0433L26.8467 42.6667ZM21.8467 42H26.18V41C26.18 40.9267 26.5133 36.1533 23.05 33.6C22.543 33.2309 22.0789 32.806 21.6667 32.3333L17.3333 27.3533C17.239 27.2479 17.1234 27.1636 16.9941 27.1062C16.8648 27.0487 16.7248 27.0193 16.5833 27.02H16.5233C16.3019 27.0296 16.0903 27.1142 15.9233 27.26C15.7305 27.431 15.6111 27.6698 15.59 27.9267C15.59 27.9533 15.59 27.9767 15.59 28.0033C15.584 28.2461 15.6683 28.4825 15.8267 28.6667L20.27 33.7967C20.3247 33.8638 20.3512 33.9496 20.3437 34.0359C20.3362 34.1222 20.2955 34.2023 20.23 34.259C20.1646 34.3158 20.0797 34.3449 19.9932 34.3401C19.9067 34.3353 19.8254 34.297 19.7667 34.2333L15.3333 29.1C15.0642 28.7966 14.9148 28.4056 14.9133 28C14.9133 27.9567 14.9133 27.9167 14.9133 27.8733C14.9465 27.4335 15.1527 27.0248 15.4867 26.7367C15.6833 26.5639 15.919 26.4416 16.1733 26.38V18.6667C16.1737 18.5348 16.1479 18.4042 16.0976 18.2824C16.0472 18.1605 15.9733 18.0498 15.88 17.9567C15.702 17.7798 15.4641 17.6763 15.2133 17.6667C15.0836 17.6616 14.9543 17.6832 14.8333 17.7302C14.7123 17.7772 14.6022 17.8487 14.51 17.94C14.4034 18.0447 14.3189 18.1698 14.2617 18.3078C14.2044 18.4458 14.1755 18.5939 14.1767 18.7433V28.7433C14.1767 29.2554 14.1388 29.7668 14.0633 30.2733C13.93 31.17 13.88 32.86 15.0233 34.13C16.8567 36.1733 18.4033 37.7433 20.04 39.4067L20.6867 40.0733L21.8433 40.8333L21.8467 42Z" fill="#32575A"/>
<g clip-path="url(#clip0_1343_1390)">
<path d="M28.1088 31.3626C28.0711 31.3649 28.034 31.3523 28.0056 31.3274C27.9773 31.3024 27.9599 31.2673 27.9573 31.2297V24.025C27.9627 23.9887 27.981 23.9555 28.0088 23.9316C28.0366 23.9076 28.0721 23.8945 28.1088 23.8945C28.1455 23.8945 28.181 23.9076 28.2088 23.9316C28.2366 23.9555 28.2548 23.9887 28.2603 24.025V31.2297C28.2577 31.2673 28.2403 31.3024 28.2119 31.3274C28.1835 31.3523 28.1465 31.3649 28.1088 31.3626Z" fill="#32575A"/>
<path d="M27.9876 29.4235L27.7688 29.346C27.45 29.2298 27.1386 29.0943 26.8362 28.9403C26.1966 28.6037 25.5838 27.4927 25.5586 27.4455L25.3903 27.1291L25.7353 27.0415C25.769 27.0415 26.577 26.8379 27.5719 27.4775C28.6896 28.1913 28.1122 29.213 28.1055 29.2299L27.9876 29.4235ZM25.8919 27.3513C26.0316 27.592 26.5248 28.3949 26.9928 28.6424C27.2658 28.7818 27.5469 28.9049 27.8345 29.011C27.9153 28.8427 28.129 28.2317 27.3884 27.757C26.9519 27.4518 26.4227 27.3083 25.8919 27.3513Z" fill="#32575A"/>
<path d="M28.1712 29.4235L28.055 29.2299C28.055 29.2198 27.4709 28.198 28.5886 27.4809C29.565 26.8547 30.3393 27.023 30.4235 27.0449L30.7753 27.1358L30.6053 27.4455C30.58 27.4927 29.9673 28.6037 29.3293 28.9403C29.028 29.0949 28.7171 29.2299 28.3984 29.3443L28.1712 29.4235ZM30.0666 27.3395C29.6034 27.3514 29.1535 27.4963 28.7704 27.757C28.0315 28.2317 28.2419 28.836 28.3244 29.011C28.6121 28.9052 28.8932 28.7821 29.166 28.6424C29.6357 28.3882 30.1289 27.5903 30.2686 27.3513C30.2016 27.3427 30.1341 27.3388 30.0666 27.3395Z" fill="#32575A"/>
<path d="M28.0196 26.9709L27.8159 26.8985C27.5545 26.8021 27.2992 26.6897 27.0517 26.5618C26.5315 26.2874 26.0518 25.4289 25.9979 25.333L25.8296 25.0384L26.1562 24.9559C26.2252 24.9374 26.8665 24.7876 27.6712 25.3145C28.4505 25.8195 28.257 26.5433 28.1156 26.7807L28.0196 26.9709ZM26.3481 25.269C26.4861 25.4996 26.8531 26.0821 27.2099 26.2689C27.4225 26.3773 27.6411 26.4734 27.8647 26.5568C27.9321 26.3884 28.0499 25.9525 27.5011 25.6006C27.1646 25.3644 26.7587 25.2476 26.3481 25.269Z" fill="#32575A"/>
<path d="M28.1408 26.9708L28.0314 26.784C28.0314 26.784 27.5432 25.9154 28.4775 25.3178C29.2821 24.801 29.9252 24.9407 29.9925 24.9576L30.3191 25.0417L30.1507 25.3363C30.0985 25.4323 29.6188 26.2908 29.097 26.5652C28.85 26.693 28.5953 26.8055 28.3344 26.9018L28.1408 26.9708ZM29.6979 25.2639C29.3265 25.2739 28.9659 25.3908 28.6593 25.6006C28.1122 25.9507 28.2267 26.3935 28.2957 26.5567C28.5193 26.4734 28.7379 26.3773 28.9505 26.2689C29.3023 26.082 29.6743 25.4996 29.8107 25.269C29.7804 25.2673 29.7417 25.2639 29.6979 25.2639Z" fill="#32575A"/>
<path d="M28.0196 24.7085L27.8159 24.6361C27.5543 24.5403 27.299 24.4278 27.0517 24.2994C26.5315 24.0301 26.0602 23.1699 25.9979 23.0739L25.8296 22.781L26.1562 22.6969C26.2252 22.68 26.8665 22.5285 27.6712 23.0554C28.4505 23.5604 28.257 24.2859 28.1156 24.5233L28.0196 24.7085ZM26.3481 23.0016C26.4861 23.2322 26.8531 23.8146 27.2099 23.9998C27.4226 24.1086 27.6412 24.2052 27.8647 24.2893C27.9321 24.121 28.0499 23.685 27.5011 23.3332C27.1646 23.097 26.7587 22.9803 26.3481 23.0016Z" fill="#32575A"/>
<path d="M28.1408 24.7085L28.0314 24.5166C28.0314 24.5065 27.5432 23.648 28.4775 23.0487C29.2872 22.5302 29.9268 22.6733 29.9925 22.6901L30.3174 22.7743L30.149 23.0672C30.0969 23.1648 29.6171 24.0234 29.0953 24.2977C28.8485 24.426 28.5938 24.5384 28.3327 24.6344L28.1408 24.7085ZM29.6962 23.0016C29.3254 23.0117 28.9653 23.1286 28.6593 23.3382C28.1122 23.6884 28.2267 24.1311 28.2957 24.2944C28.5191 24.2125 28.7377 24.1181 28.9505 24.0116C29.3023 23.8264 29.6743 23.244 29.8107 23.0133C29.7728 23.0074 29.7346 23.0035 29.6962 23.0016Z" fill="#32575A"/>
<path d="M31.5283 20.1568C32.6572 20.1691 33.6666 20.6471 34.3799 21.3639C35.0933 22.0809 35.5749 23.1139 35.5762 24.2701C35.5773 25.4281 35.0967 26.7023 33.9014 27.902L28.1152 33.6861L28.0449 33.7564L22.1836 27.8951C20.8171 26.5286 20.2954 24.9042 20.7119 23.3229V23.3219C20.9041 22.6164 21.2779 21.9738 21.7959 21.4576C22.3139 20.9415 22.9579 20.5702 23.6641 20.3805C25.1734 19.9742 26.7148 20.4412 28.0439 21.6695C29.204 20.583 30.4196 20.1449 31.5283 20.1568ZM31.458 20.6979C30.4465 20.7077 29.3179 21.1435 28.2354 22.2301V22.2311L28.1152 22.3502L28.0439 22.4215L27.9736 22.3492L27.8555 22.2301V22.2291C26.8939 21.2596 25.8106 20.7672 24.7305 20.7672C24.4959 20.7669 24.2618 20.7895 24.0322 20.8355L23.8037 20.8893C23.1871 21.0551 22.6245 21.3803 22.1729 21.8316C21.7212 22.283 21.3958 22.8451 21.2295 23.4615C20.8604 24.8365 21.3253 26.2776 22.5635 27.5143L28.0479 32.9986L33.5322 27.5143C34.6104 26.4361 35.044 25.3097 35.0537 24.2984C35.0633 23.2857 34.6479 22.3797 34.0117 21.7428C33.3755 21.1058 32.471 20.6881 31.458 20.6979Z" fill="#32575A" stroke="#32575A" stroke-width="0.2"/>
</g>
<defs>
<clipPath id="clip0_1343_1390">
<rect width="16.16" height="16.16" fill="white" transform="translate(20.0001 18.12)"/>
</clipPath>
</defs>
</svg>
