<svg width="56" height="56" viewBox="0 0 56 56" fill="none" xmlns="http://www.w3.org/2000/svg">
<path d="M0 12C0 5.37258 5.37258 0 12 0H44C50.6274 0 56 5.37258 56 12V44C56 50.6274 50.6274 56 44 56H12C5.37258 56 0 50.6274 0 44V12Z" fill="#EDF2F7"/>
<g clip-path="url(#clip0_1343_1408)">
<path d="M43.4989 12H38.0209C37.7442 12 37.5198 12.2242 37.5198 12.501C37.5198 12.7778 37.7441 13.0021 38.0209 13.0021H42.9979V25.3612H35.3486C35.3113 25.3612 35.275 25.3656 35.24 25.3734C34.7962 25.229 34.3291 25.1379 33.8455 25.107V24.0585C33.8455 24.0092 33.8429 23.9605 33.8383 23.9124C35.3533 22.8123 36.2506 21.0635 36.2506 19.1816C36.2506 15.9584 33.6283 13.3361 30.4051 13.3361C27.1818 13.3361 24.5596 15.9584 24.5596 19.1816C24.5596 20.4059 24.936 21.5749 25.6316 22.5553H17.8121V13.002H35.6159C35.8926 13.002 36.1169 12.7778 36.1169 12.501C36.1169 12.2242 35.8926 11.9999 35.6159 11.9999H17.3111C17.0344 12 16.81 12.2242 16.81 12.501V22.5553H13.5031C12.6742 22.5553 12 23.2296 12 24.0584V35.6826C12 36.5114 12.6742 37.1857 13.5031 37.1857H19.5824C19.8591 37.1857 20.0835 36.9615 20.0835 36.6847C20.0835 36.4079 19.8592 36.1836 19.5824 36.1836H13.5031C13.2268 36.1836 13.0021 35.9589 13.0021 35.6825V29.5698H27.9024C27.8141 29.9681 27.7661 30.3813 27.7661 30.8057V32.2755C27.7661 32.2941 27.7673 32.3124 27.7692 32.3305C27.1158 32.6757 26.6322 33.301 26.4804 34.0459H23.4571C23.1804 34.0459 22.9561 34.2701 22.9561 34.5469C22.9561 34.8237 23.1804 35.048 23.4571 35.048H26.43V36.1837H21.8538C21.5771 36.1837 21.3527 36.4079 21.3527 36.6847C21.3527 36.9615 21.5771 37.1858 21.8538 37.1858H26.43V43.4989C26.43 43.7757 26.6543 44 26.9311 44H40.025C40.3017 44 40.5261 43.7757 40.5261 43.4989V34.547C40.5261 33.5877 39.9838 32.753 39.1899 32.3322V30.8059C39.1899 29.013 38.3589 27.4112 37.0626 26.3633H43.4989C43.7756 26.3633 43.9999 26.139 43.9999 25.8622V12.501C44 12.2242 43.7757 12 43.4989 12ZM25.5616 19.1816C25.5616 16.5109 27.7343 14.3382 30.405 14.3382C33.0757 14.3382 35.2484 16.5109 35.2484 19.1816C35.2484 20.6784 34.5633 22.0736 33.3979 22.9895C33.1263 22.7212 32.7534 22.5553 32.3424 22.5553H30.9061V22.0877H31.3404C31.985 22.0877 32.5095 21.5632 32.5095 20.9185V19.8497C32.5095 19.205 31.985 18.6805 31.3404 18.6805H30.9061V17.2777H32.2756C32.5523 17.2777 32.7767 17.0534 32.7767 16.7766C32.7767 16.4999 32.5524 16.2755 32.2756 16.2755H30.9061V15.7077C30.9061 15.4309 30.6818 15.2066 30.4051 15.2066C30.1283 15.2066 29.904 15.4309 29.904 15.7077V16.2755H29.4697C28.8251 16.2755 28.3006 16.8 28.3006 17.4447V18.5135C28.3006 19.1582 28.8251 19.6827 29.4697 19.6827H29.904V21.0856H28.5345C28.2578 21.0856 28.0334 21.3099 28.0334 21.5867C28.0334 21.8634 28.2577 22.0877 28.5345 22.0877H29.904V22.5554H26.9306C26.0478 21.6465 25.5616 20.4496 25.5616 19.1816ZM30.9061 21.0856V19.6827H31.3403C31.4324 19.6827 31.5073 19.7575 31.5073 19.8497V20.9185C31.5073 21.0107 31.4324 21.0855 31.3403 21.0855L30.9061 21.0856ZM29.904 17.2777V18.6806H29.4697C29.3777 18.6806 29.3027 18.6057 29.3027 18.5136V17.4447C29.3027 17.3525 29.3777 17.2777 29.4697 17.2777H29.904ZM13.0021 24.0584C13.0021 23.7821 13.2268 23.5574 13.5031 23.5574H32.3424C32.6187 23.5574 32.8434 23.7821 32.8434 24.0584V25.13C32.0174 25.2219 31.2443 25.4902 30.5624 25.8968C30.5545 25.8965 30.5467 25.8956 30.5387 25.8956H13.0021V24.0584ZM13.0021 28.5679V26.8977H29.3181C28.862 27.3829 28.4888 27.9469 28.2233 28.5679H13.0021ZM39.524 34.547V42.9979H27.4321V34.547C27.4321 33.7182 28.1064 33.0439 28.9352 33.0439H38.0209C38.8498 33.0438 39.524 33.7182 39.524 34.547ZM32.8434 29.5699V32.0417H30.3716V30.8058C30.3716 30.3659 30.4641 29.9474 30.6297 29.5677C30.6437 29.5689 30.6579 29.5699 30.6723 29.5699L32.8434 29.5699ZM31.327 28.5679C31.7401 28.1707 32.2619 27.886 32.8434 27.7648V28.5679H31.327ZM33.8455 32.0417V27.7218C35.3858 27.9042 36.5846 29.2172 36.5846 30.8058V32.0417H33.8455ZM38.1879 30.8059V32.048C38.1326 32.0443 37.5866 32.0418 37.5866 32.0418V30.8059C37.5866 28.5404 35.7435 26.6973 33.4781 26.6973C31.2126 26.6973 29.3695 28.5404 29.3695 30.8059V32.0418C29.3695 32.0418 28.8235 32.0444 28.7682 32.048V30.8059C28.7682 28.2089 30.8811 26.096 33.4781 26.096C36.0751 26.096 38.1879 28.2088 38.1879 30.8059Z" fill="#32575A"/>
<path d="M41.8956 14.1378H37.6201C37.3434 14.1378 37.119 14.3621 37.119 14.6389C37.119 14.9156 37.3433 15.1399 37.6201 15.1399H41.8956C42.1723 15.1399 42.3967 14.9157 42.3967 14.6389C42.3967 14.3621 42.1723 14.1378 41.8956 14.1378Z" fill="#32575A"/>
<path d="M41.8956 16.2755H38.6889C38.4122 16.2755 38.1879 16.4998 38.1879 16.7766C38.1879 17.0534 38.4122 17.2777 38.6889 17.2777H41.8956C42.1723 17.2777 42.3967 17.0534 42.3967 16.7766C42.3967 16.4998 42.1723 16.2755 41.8956 16.2755Z" fill="#32575A"/>
<path d="M23.19 14.1378H18.9144C18.6377 14.1378 18.4133 14.3621 18.4133 14.6389C18.4133 14.9156 18.6376 15.1399 18.9144 15.1399H23.19C23.4666 15.1399 23.691 14.9157 23.691 14.6389C23.691 14.3621 23.4667 14.1378 23.19 14.1378Z" fill="#32575A"/>
<path d="M22.1211 16.2755H18.9144C18.6377 16.2755 18.4133 16.4998 18.4133 16.7766C18.4133 17.0534 18.6376 17.2777 18.9144 17.2777H22.1211C22.3978 17.2777 22.6221 17.0534 22.6221 16.7766C22.6221 16.4998 22.3978 16.2755 22.1211 16.2755Z" fill="#32575A"/>
<path d="M41.8956 23.7578H40.2923C40.0156 23.7578 39.7913 23.9821 39.7913 24.2589C39.7913 24.5357 40.0156 24.7599 40.2923 24.7599H41.8956C42.1723 24.7599 42.3967 24.5357 42.3967 24.2589C42.3967 23.9821 42.1723 23.7578 41.8956 23.7578Z" fill="#32575A"/>
<path d="M38.1545 23.7578H36.5512C36.2745 23.7578 36.0502 23.9821 36.0502 24.2589C36.0502 24.5357 36.2745 24.7599 36.5512 24.7599H38.1545C38.4312 24.7599 38.6556 24.5357 38.6556 24.2589C38.6556 23.9821 38.4312 23.7578 38.1545 23.7578Z" fill="#32575A"/>
<path d="M21.3197 18.947C20.6013 18.947 20.017 19.5314 20.017 20.2496C20.017 20.9679 20.6014 21.5523 21.3197 21.5523C22.0379 21.5523 22.6223 20.9679 22.6223 20.2496C22.6223 19.5314 22.0379 18.947 21.3197 18.947ZM21.3197 20.5503C21.1539 20.5503 21.019 20.4154 21.019 20.2496C21.019 20.0839 21.1539 19.949 21.3197 19.949C21.4854 19.949 21.6203 20.0839 21.6203 20.2496C21.6203 20.4154 21.4854 20.5503 21.3197 20.5503Z" fill="#32575A"/>
<path d="M39.4907 18.947C38.7724 18.947 38.188 19.5314 38.188 20.2496C38.188 20.9679 38.7724 21.5523 39.4907 21.5523C40.209 21.5523 40.7934 20.9679 40.7934 20.2496C40.7934 19.5314 40.2089 18.947 39.4907 18.947ZM39.4907 20.5503C39.3249 20.5503 39.1901 20.4154 39.1901 20.2496C39.1901 20.0839 39.3249 19.949 39.4907 19.949C39.6564 19.949 39.7913 20.0839 39.7913 20.2496C39.7913 20.4154 39.6564 20.5503 39.4907 20.5503Z" fill="#32575A"/>
<path d="M33.478 33.7794C31.1389 33.7794 29.2358 35.6824 29.2358 38.0216C29.2358 40.3607 31.1388 42.2637 33.478 42.2637C35.8172 42.2637 37.7202 40.3607 37.7202 38.0216C37.7202 35.6824 35.8172 33.7794 33.478 33.7794ZM33.478 41.2616C31.6915 41.2616 30.238 39.8081 30.238 38.0216C30.238 36.235 31.6915 34.7815 33.478 34.7815C35.2646 34.7815 36.7181 36.235 36.7181 38.0216C36.7181 39.8081 35.2647 41.2616 33.478 41.2616Z" fill="#32575A"/>
<path d="M35.7258 36.7548C35.5435 36.5465 35.227 36.5255 35.0187 36.7076L33.2528 38.2528L32.3808 37.284C32.1957 37.0783 31.8789 37.0616 31.6732 37.2468C31.4675 37.4319 31.4508 37.7487 31.636 37.9544L32.8385 39.2905C32.9373 39.4003 33.0739 39.4563 33.211 39.4563C33.3282 39.4563 33.4458 39.4155 33.5408 39.3324L35.6786 37.4618C35.8868 37.2795 35.908 36.963 35.7258 36.7548Z" fill="#32575A"/>
</g>
<defs>
<clipPath id="clip0_1343_1408">
<rect width="32" height="32" fill="white" transform="translate(12 12)"/>
</clipPath>
</defs>
</svg>
