<svg width="56" height="56" viewBox="0 0 56 56" fill="none" xmlns="http://www.w3.org/2000/svg">
<path d="M0 12C0 5.37258 5.37258 0 12 0H44C50.6274 0 56 5.37258 56 12V44C56 50.6274 50.6274 56 44 56H12C5.37258 56 0 50.6274 0 44V12Z" fill="#EDF2F7"/>
<g clip-path="url(#clip0_1343_1328)">
<path d="M34.5 35.9995C34.2348 35.9995 33.9804 35.8942 33.7929 35.7066C33.6054 35.5191 33.5 35.2647 33.5 34.9995C33.5033 33.7693 33.0926 32.5737 32.3339 31.6053C31.5753 30.6368 30.5128 29.9518 29.3175 29.6605C29.1136 29.6106 28.9305 29.4977 28.7943 29.3379C28.6581 29.1781 28.5757 28.9794 28.5587 28.7701C28.5417 28.5608 28.5911 28.3515 28.6997 28.1718C28.8083 27.9921 28.9708 27.8512 29.164 27.769C29.8023 27.5003 30.328 27.019 30.6519 26.4068C30.9757 25.7946 31.0777 25.0892 30.9407 24.4103C30.8036 23.7314 30.4359 23.1209 29.8999 22.6823C29.3639 22.2437 28.6926 22.004 28 22.004C27.3074 22.004 26.6362 22.2437 26.1002 22.6823C25.5642 23.1209 25.1964 23.7314 25.0594 24.4103C24.9223 25.0892 25.0243 25.7946 25.3482 26.4068C25.672 27.019 26.1977 27.5003 26.836 27.769C27.0292 27.8512 27.1917 27.9921 27.3003 28.1718C27.409 28.3515 27.4583 28.5608 27.4413 28.7701C27.4243 28.9794 27.3419 29.1781 27.2057 29.3379C27.0695 29.4977 26.8865 29.6106 26.6825 29.6605C25.4873 29.9518 24.4248 30.6368 23.6661 31.6053C22.9074 32.5737 22.4967 33.7693 22.5 34.9995C22.5 35.2647 22.3947 35.5191 22.2071 35.7066C22.0196 35.8942 21.7652 35.9995 21.5 35.9995C21.2348 35.9995 20.9804 35.8942 20.7929 35.7066C20.6054 35.5191 20.5 35.2647 20.5 34.9995C20.497 33.6595 20.8541 32.3434 21.534 31.1887C22.2138 30.0339 23.1914 29.0831 24.3645 28.4355C23.694 27.7254 23.2461 26.8344 23.0762 25.8726C22.9064 24.9108 23.0219 23.9203 23.4085 23.0234C23.7952 22.1265 24.4361 21.3625 25.2521 20.8257C26.068 20.2889 27.0233 20.0029 28 20.0029C28.9767 20.0029 29.932 20.2889 30.748 20.8257C31.5639 21.3625 32.2048 22.1265 32.5915 23.0234C32.9782 23.9203 33.0937 24.9108 32.9238 25.8726C32.7539 26.8344 32.306 27.7254 31.6355 28.4355C32.8087 29.0831 33.7863 30.0339 34.4661 31.1887C35.1459 32.3434 35.503 33.6595 35.5 34.9995C35.5 35.2647 35.3947 35.5191 35.2071 35.7066C35.0196 35.8942 34.7652 35.9995 34.5 35.9995Z" fill="#32575A"/>
<path d="M27.9999 43.9995C25.8614 43.9975 23.7481 43.5382 21.8017 42.6525C19.8552 41.7668 18.1206 40.4751 16.7143 38.8641C15.3079 37.2531 14.2623 35.36 13.6475 33.3118C13.0327 31.2635 12.863 29.1075 13.1497 26.9884C13.4364 24.8692 14.173 22.8358 15.3099 21.0246C16.4469 19.2134 17.958 17.6662 19.7419 16.4868C21.5258 15.3075 23.5412 14.5232 25.6531 14.1865C27.7649 13.8499 29.9243 13.9687 31.9864 14.535C32.2422 14.6054 32.4596 14.7746 32.5907 15.0052C32.7218 15.2359 32.7559 15.5092 32.6854 15.765C32.615 16.0208 32.4459 16.2382 32.2152 16.3692C31.9845 16.5003 31.7112 16.5344 31.4554 16.464C28.6811 15.7016 25.732 15.8822 23.0714 16.9774C20.4108 18.0726 18.1893 20.0205 16.7557 22.5151C15.3221 25.0098 14.7576 27.9099 15.1508 30.7601C15.5441 33.6103 16.8728 36.2493 18.9284 38.2625C20.9839 40.2757 23.6499 41.5492 26.5077 41.8831C29.3655 42.2169 32.2532 41.5922 34.7175 40.107C37.1818 38.6218 39.083 36.3602 40.1226 33.6774C41.1623 30.9946 41.2814 28.0424 40.4614 25.2845C40.4229 25.1583 40.4098 25.0258 40.4227 24.8945C40.4356 24.7632 40.4744 24.6357 40.5368 24.5195C40.5992 24.4033 40.684 24.3005 40.7863 24.2172C40.8886 24.1339 41.0064 24.0716 41.1329 24.034C41.2593 23.9964 41.392 23.9842 41.5232 23.9981C41.6544 24.012 41.7815 24.0517 41.8973 24.115C42.0131 24.1782 42.1152 24.2638 42.1978 24.3667C42.2804 24.4696 42.3418 24.5878 42.3784 24.7145C43.0436 26.9535 43.177 29.3169 42.7682 31.6165C42.3593 33.9162 41.4194 36.0887 40.0233 37.9612C38.6272 39.8338 36.8133 41.3547 34.726 42.4029C32.6388 43.4512 30.3357 43.9979 27.9999 43.9995Z" fill="#32575A"/>
<path d="M36 22.9995C35.8687 22.9997 35.7386 22.974 35.6172 22.9237C35.4959 22.8734 35.3857 22.7996 35.293 22.7065L32.793 20.2065C32.6109 20.0179 32.5101 19.7653 32.5124 19.5031C32.5146 19.2409 32.6198 18.9901 32.8052 18.8047C32.9906 18.6193 33.2414 18.5141 33.5036 18.5118C33.7658 18.5095 34.0184 18.6103 34.207 18.7925L36 20.5855L40.793 15.7925C40.8853 15.697 40.9956 15.6208 41.1176 15.5684C41.2396 15.516 41.3709 15.4884 41.5036 15.4873C41.6364 15.4861 41.7681 15.5114 41.891 15.5617C42.0139 15.612 42.1255 15.6862 42.2194 15.7801C42.3133 15.874 42.3876 15.9857 42.4379 16.1085C42.4881 16.2314 42.5134 16.3631 42.5123 16.4959C42.5111 16.6287 42.4836 16.7599 42.4311 16.8819C42.3787 17.0039 42.3026 17.1143 42.207 17.2065L36.707 22.7065C36.6144 22.7996 36.5042 22.8734 36.3828 22.9237C36.2615 22.974 36.1314 22.9997 36 22.9995Z" fill="#32575A"/>
</g>
<defs>
<clipPath id="clip0_1343_1328">
<rect width="33.6842" height="32" fill="white" transform="translate(11 12.5933)"/>
</clipPath>
</defs>
</svg>
