<svg width="56" height="56" viewBox="0 0 56 56" fill="none" xmlns="http://www.w3.org/2000/svg">
<path d="M0 12C0 5.37258 5.37258 0 12 0H44C50.6274 0 56 5.37258 56 12V44C56 50.6274 50.6274 56 44 56H12C5.37258 56 0 50.6274 0 44V12Z" fill="#EDF2F7"/>
<path d="M31.5 43H17V16H32.293L35 18.707V33.5C35 33.6326 35.0527 33.7598 35.1464 33.8536C35.2402 33.9473 35.3674 34 35.5 34C35.6326 34 35.7598 33.9473 35.8536 33.8536C35.9473 33.7598 36 33.6326 36 33.5V18.5C36 18.3674 35.9473 18.2402 35.8535 18.1465L32.8535 15.1465C32.7598 15.0527 32.6326 15 32.5 15H16.5C16.3674 15 16.2402 15.0527 16.1464 15.1464C16.0527 15.2402 16 15.3674 16 15.5V43.5C16 43.6326 16.0527 43.7598 16.1464 43.8536C16.2402 43.9473 16.3674 44 16.5 44H31.5C31.6326 44 31.7598 43.9473 31.8536 43.8536C31.9473 43.7598 32 43.6326 32 43.5C32 43.3674 31.9473 43.2402 31.8536 43.1464C31.7598 43.0527 31.6326 43 31.5 43Z" fill="#32575A"/>
<path d="M19.5 14C19.6326 14 19.7598 13.9473 19.8536 13.8536C19.9473 13.7598 20 13.6326 20 13.5V13H38V34.5C38 34.6326 38.0527 34.7598 38.1464 34.8536C38.2402 34.9473 38.3674 35 38.5 35C38.6326 35 38.7598 34.9473 38.8536 34.8536C38.9473 34.7598 39 34.6326 39 34.5V12.5C39 12.3674 38.9473 12.2402 38.8536 12.1464C38.7598 12.0527 38.6326 12 38.5 12H19.5C19.3674 12 19.2402 12.0527 19.1464 12.1464C19.0527 12.2402 19 12.3674 19 12.5V13.5C19 13.6326 19.0527 13.7598 19.1464 13.8536C19.2402 13.9473 19.3674 14 19.5 14Z" fill="#32575A"/>
<path d="M26 29C26.7911 29 27.5645 28.7654 28.2223 28.3259C28.8801 27.8864 29.3928 27.2616 29.6955 26.5307C29.9983 25.7998 30.0775 24.9956 29.9231 24.2196C29.7688 23.4437 29.3878 22.731 28.8284 22.1716C28.269 21.6122 27.5563 21.2312 26.7804 21.0769C26.0044 20.9225 25.2002 21.0017 24.4693 21.3045C23.7384 21.6072 23.1136 22.1199 22.6741 22.7777C22.2346 23.4355 22 24.2089 22 25C22.0012 26.0605 22.423 27.0772 23.1729 27.8271C23.9228 28.577 24.9395 28.9988 26 29ZM26 22C26.5933 22 27.1734 22.1759 27.6667 22.5056C28.1601 22.8352 28.5446 23.3038 28.7716 23.852C28.9987 24.4001 29.0581 25.0033 28.9424 25.5853C28.8266 26.1672 28.5409 26.7018 28.1213 27.1213C27.7018 27.5409 27.1672 27.8266 26.5853 27.9424C26.0033 28.0581 25.4001 27.9987 24.8519 27.7716C24.3038 27.5446 23.8352 27.1601 23.5056 26.6667C23.1759 26.1734 23 25.5933 23 25C23.0008 24.2046 23.3171 23.442 23.8796 22.8796C24.442 22.3171 25.2046 22.0008 26 22Z" fill="#32575A"/>
<path d="M26.1955 27C26.4752 26.9988 26.7515 26.9389 27.0066 26.8243C27.2617 26.7097 27.4899 26.5428 27.6765 26.3345C27.7652 26.2359 27.8111 26.1061 27.8041 25.9737C27.7972 25.8412 27.7378 25.717 27.6393 25.6283C27.5407 25.5395 27.4109 25.4936 27.2784 25.5006C27.146 25.5076 27.0217 25.5669 26.933 25.6655C26.8408 25.7703 26.7274 25.8544 26.6002 25.912C26.4731 25.9697 26.3351 25.9997 26.1955 26C25.9303 26 25.6759 25.8946 25.4884 25.7071C25.3009 25.5196 25.1955 25.2652 25.1955 25C25.1955 24.7348 25.3009 24.4804 25.4884 24.2929C25.6759 24.1054 25.9303 24 26.1955 24C26.3351 24.0003 26.4731 24.0303 26.6002 24.088C26.7274 24.1456 26.8408 24.2297 26.933 24.3345C27.0217 24.4331 27.146 24.4924 27.2784 24.4994C27.4109 24.5064 27.5407 24.4605 27.6393 24.3718C27.7378 24.283 27.7972 24.1588 27.8041 24.0263C27.8111 23.8939 27.7652 23.7641 27.6765 23.6655C27.4536 23.4181 27.1724 23.2303 26.8584 23.1193C26.5444 23.0083 26.2077 22.9775 25.8788 23.0298C25.5499 23.0821 25.2393 23.2158 24.9753 23.4187C24.7112 23.6216 24.5021 23.8873 24.3669 24.1917C24.2317 24.4961 24.1748 24.8294 24.2013 25.1613C24.2278 25.4933 24.3368 25.8134 24.5185 26.0925C24.7002 26.3715 24.9489 26.6007 25.2417 26.7593C25.5346 26.9178 25.8625 27.0005 26.1955 27Z" fill="#32575A"/>
<path d="M22.5 32H29.5C29.6326 32 29.7598 31.9473 29.8536 31.8536C29.9473 31.7598 30 31.6326 30 31.5C30 31.3674 29.9473 31.2402 29.8536 31.1464C29.7598 31.0527 29.6326 31 29.5 31H22.5C22.3674 31 22.2402 31.0527 22.1464 31.1464C22.0527 31.2402 22 31.3674 22 31.5C22 31.6326 22.0527 31.7598 22.1464 31.8536C22.2402 31.9473 22.3674 32 22.5 32Z" fill="#32575A"/>
<path d="M31 33.5C31 33.3674 30.9473 33.2402 30.8536 33.1464C30.7598 33.0527 30.6326 33 30.5 33H21.5C21.3674 33 21.2402 33.0527 21.1464 33.1464C21.0527 33.2402 21 33.3674 21 33.5C21 33.6326 21.0527 33.7598 21.1464 33.8536C21.2402 33.9473 21.3674 34 21.5 34H30.5C30.6326 34 30.7598 33.9473 30.8536 33.8536C30.9473 33.7598 31 33.6326 31 33.5Z" fill="#32575A"/>
<path d="M21.5 35C21.3674 35 21.2402 35.0527 21.1464 35.1464C21.0527 35.2402 21 35.3674 21 35.5C21 35.6326 21.0527 35.7598 21.1464 35.8536C21.2402 35.9473 21.3674 36 21.5 36H28.5C28.6326 36 28.7598 35.9473 28.8536 35.8536C28.9473 35.7598 29 35.6326 29 35.5C29 35.3674 28.9473 35.2402 28.8536 35.1464C28.7598 35.0527 28.6326 35 28.5 35H21.5Z" fill="#32575A"/>
<path d="M35.5 35C34.61 35 33.74 35.2639 32.9999 35.7584C32.2599 36.2529 31.6831 36.9557 31.3425 37.7779C31.002 38.6002 30.9128 39.505 31.0865 40.3779C31.2601 41.2508 31.6887 42.0526 32.318 42.682C32.9474 43.3113 33.7492 43.7399 34.6221 43.9135C35.495 44.0872 36.3998 43.9981 37.2221 43.6575C38.0443 43.3169 38.7471 42.7401 39.2416 42.0001C39.7361 41.26 40 40.39 40 39.5C39.9987 38.3069 39.5241 37.1631 38.6805 36.3195C37.8369 35.4759 36.6931 35.0013 35.5 35ZM35.5 43C34.8078 43 34.1311 42.7947 33.5555 42.4101C32.9799 42.0256 32.5313 41.4789 32.2664 40.8394C32.0015 40.1999 31.9322 39.4961 32.0673 38.8172C32.2023 38.1383 32.5356 37.5146 33.0251 37.0251C33.5146 36.5356 34.1383 36.2023 34.8172 36.0673C35.4961 35.9322 36.1999 36.0015 36.8394 36.2664C37.4789 36.5313 38.0256 36.9799 38.4101 37.5555C38.7947 38.1311 39 38.8078 39 39.5C38.9989 40.4279 38.6299 41.3176 37.9737 41.9737C37.3176 42.6299 36.4279 42.9989 35.5 43Z" fill="#32575A"/>
<path d="M36.6465 38.1465L35 39.793L34.3535 39.1465C34.2592 39.0554 34.1329 39.005 34.0018 39.0062C33.8707 39.0073 33.7453 39.0599 33.6525 39.1526C33.5598 39.2453 33.5073 39.3707 33.5061 39.5018C33.505 39.6329 33.5554 39.7592 33.6465 39.8535L34.6465 40.8535C34.7402 40.9472 34.8674 40.9999 35 40.9999C35.1325 40.9999 35.2597 40.9472 35.3535 40.8535L37.3535 38.8535C37.4445 38.7592 37.4949 38.6329 37.4938 38.5018C37.4927 38.3707 37.4401 38.2453 37.3474 38.1526C37.2547 38.0599 37.1293 38.0073 36.9982 38.0062C36.8671 38.005 36.7408 38.0554 36.6465 38.1465Z" fill="#32575A"/>
</svg>
